<?xml version="1.0" encoding="UTF-8"?>
<!DOCTYPE svg PUBLIC "-//W3C//DTD SVG 1.1//EN" "http://www.w3.org/Graphics/SVG/1.1/DTD/svg11.dtd">
<!-- Creator: CorelDRAW 2021.5 -->
<svg xmlns="http://www.w3.org/2000/svg" xml:space="preserve" width="28.7798mm" height="43.3522mm" version="1.1" style="shape-rendering:geometricPrecision; text-rendering:geometricPrecision; image-rendering:optimizeQuality; fill-rule:evenodd; clip-rule:evenodd"
viewBox="0 0 286.71 431.88"
 xmlns:xlink="http://www.w3.org/1999/xlink"
 xmlns:xodm="http://www.corel.com/coreldraw/odm/2003">
 <defs>
  <style type="text/css">
   <![CDATA[
    .fil0 {fill:#FEFEFE}
    .fil1 {fill:#332C2B}
    .fil2 {fill:#FFF000}
    .fil4 {fill:#E40082}
    .fil3 {fill:#00A2E9}
   ]]>
  </style>
 </defs>
 <g id="Layer_x0020_1">
  <metadata id="CorelCorpID_0Corel-Layer"/>
  <path class="fil0" d="M115.61 260.63l0 113.45c0,31.82 -25.99,57.81 -57.81,57.81 -31.82,0 -57.81,-25.99 -57.81,-57.81l0 -50.48c0,-0.12 0,-0.21 0,-0.33 0.77,-27.75 18.29,-53.58 37.47,-72.44 15.54,-15.28 38.57,-31.91 60.15,-38.29 0.35,-0.32 0.71,-0.64 1.06,-0.95 -23.7,2.54 -47.36,-1.41 -69.24,-14.7 -3.24,-1.97 -5.21,-5.02 -5.67,-8.79 -0.45,-3.77 0.73,-7.2 3.42,-9.88l63.65 -63.65c-8.58,4.62 -18.39,7.24 -28.81,7.24 -33.63,0 -60.9,-27.27 -60.9,-60.9 0,-33.63 27.27,-60.9 60.9,-60.9 33.63,0 60.9,27.27 60.9,60.9 0,10.42 -2.62,20.24 -7.24,28.81l72.39 -72.39c22.5,-22.5 59.25,-22.5 81.75,0 22.49,22.49 22.5,59.26 0,81.75l-43.21 43.21c-17.58,17.58 -38.65,34.03 -61.14,46.56 26.12,1.42 49.13,13.82 65.53,34.52 0.13,0.17 0.24,0.31 0.36,0.48l44.24 62.03c18.47,25.9 12.4,62.15 -13.5,80.63 -25.9,18.47 -62.15,12.4 -80.63,-13.5l-65.87 -92.37z"/>
  <path class="fil1" d="M103.66 223.27l87.56 122.78c14.64,20.53 43.42,25.35 63.95,10.71 20.53,-14.64 25.35,-43.42 10.71,-63.95l-44.24 -62.03c-33.43,-42.2 -89.36,-35.62 -117.99,-7.5z"/>
  <path class="fil2" d="M103.66 374.08l0 -150.8c-33.13,8.29 -90.44,54.47 -91.7,100.32l0 50.48c0,25.22 20.63,45.85 45.85,45.85 25.22,0 45.85,-20.63 45.85,-45.85z"/>
  <path class="fil3" d="M62.03 11.95c27.03,0 48.95,21.91 48.95,48.95 0,27.03 -21.91,48.95 -48.95,48.95 -27.03,0 -48.95,-21.91 -48.95,-48.95 0,-27.03 21.91,-48.95 48.95,-48.95z"/>
  <path class="fil4" d="M261.38 25.78c17.83,17.83 17.83,47.02 0,64.84l-43.21 43.21c-42.6,42.59 -120.25,90.65 -182.53,52.84l160.89 -160.89c17.83,-17.83 47.01,-17.83 64.84,0z"/>
 </g>
</svg>
